<svg width="593" height="202" fill="none" xmlns="http://www.w3.org/2000/svg"><mask id="path-1-outside-1_1760_393" maskUnits="userSpaceOnUse" x="-1" y="-1" width="595" height="204" fill="#000"><path fill="#fff" d="M-1-1h595v204H-1z"/><path d="M33.288.4H76.2L109.032 202h-31.68l-5.76-40.032v.576h-36L29.832 202H.456L33.288.4Zm34.56 134.784L53.736 35.536h-.576l-13.824 99.648h28.512ZM169.042.4h39.744l30.816 120.672h.576V.4h28.224V202h-32.544L197.842 54.832h-.576V202h-28.224V.4Zm167.546 0h48.384c15.744 0 27.552 4.224 35.424 12.672s11.808 20.832 11.808 37.152v101.952c0 16.32-3.936 28.704-11.808 37.152S400.716 202 384.972 202h-48.384V.4Zm47.808 172.8c5.184 0 9.12-1.536 11.808-4.608 2.88-3.072 4.32-8.064 4.32-14.976V48.784c0-6.912-1.44-11.904-4.32-14.976-2.688-3.072-6.624-4.608-11.808-4.608h-16.128v144h16.128Zm137.857-57.024L483.949.4h33.696l21.6 74.016h.576L561.421.4h30.816l-38.304 115.776V202h-31.68v-85.824Z"/></mask><path d="M33.288.4v-1h-.85L32.3.24l.987.16ZM76.2.4l.987-.16-.137-.84h-.85v1ZM109.032 202v1h1.176l-.189-1.161-.987.161Zm-31.68 0-.99.142.124.858h.866v-1Zm-5.76-40.032.99-.142-1.99.142h1Zm0 .576v1h1v-1h-1Zm-36 0v-1h-.865l-.124.856.989.144ZM29.832 202v1h.865l.125-.856-.99-.144ZM.456 202l-.987-.161L-.72 203H.456v-1Zm67.392-66.816v1H69l-.162-1.14-.99.14ZM53.736 35.536l.99-.14-.122-.86h-.868v1Zm-.576 0v-1h-.87l-.12.863.99.137Zm-13.824 99.648-.99-.137-.158 1.137h1.148v-1ZM33.288 1.4H76.2v-2H33.288v2ZM75.213.56l32.832 201.601 1.974-.322L77.187.239l-1.974.322ZM109.032 201h-31.68v2h31.68v-2Zm-30.69.858-5.76-40.032-1.98.284 5.76 40.032 1.98-.284Zm-7.75-39.89v.576h2v-.576h-2Zm1-.424h-36v2h36v-2Zm-36.99.856-5.76 39.456 1.98.288 5.76-39.456-1.98-.288Zm-4.77 38.6H.456v2h29.376v-2Zm-28.389 1.161L34.275.561 32.301.239-.531 201.84l1.974.322Zm67.395-67.117L54.726 35.396l-1.98.28 14.112 99.648 1.98-.28ZM53.736 34.536h-.576v2h.576v-2Zm-1.566.863-13.825 99.648 1.982.274L54.15 35.673l-1.982-.274ZM39.335 136.184h28.512v-2H39.336v2ZM169.042.4v-1h-1v1h1Zm39.744 0 .969-.247-.193-.753h-.776v1Zm30.816 120.672-.969.247.192.753h.777v-1Zm.576 0v1h1v-1h-1Zm0-120.672v-1h-1v1h1Zm28.224 0h1v-1h-1v1Zm0 201.6v1h1v-1h-1Zm-32.544 0-.968.25.193.75h.775v-1ZM197.842 54.832l.968-.25-.194-.75h-.774v1Zm-.576 0v-1h-1v1h1Zm0 147.168v1h1v-1h-1Zm-28.224 0h-1v1h1v-1Zm0-200.6h39.744v-2h-39.744v2Zm38.775-.753 30.816 120.672 1.938-.494L209.755.153l-1.938.494Zm31.785 121.425h.576v-2h-.576v2Zm1.576-1V.4h-2v120.672h2Zm-1-119.672h28.224v-2h-28.224v2Zm27.224-1V202h2V.4h-2Zm1 200.6h-32.544v2h32.544v-2Zm-31.576.75L198.81 54.582l-1.936.5L234.89 202.25l1.936-.5ZM197.842 53.832h-.576v2h.576v-2Zm-1.576 1V202h2V54.832h-2Zm1 146.168h-28.224v2h28.224v-2Zm-27.224 1V.4h-2V202h2ZM336.588.4v-1h-1v1h1Zm83.808 12.672-.732.682.732-.682ZM336.588 202h-1v1h1v-1Zm59.616-33.408-.73-.684-.011.013-.012.012.753.659Zm0-134.784-.753.659.012.012.011.013.73-.684ZM368.268 29.2v-1h-1v1h1Zm0 144h-1v1h1v-1ZM336.588 1.4h48.384v-2h-48.384v2Zm48.384 0c15.571 0 27.071 4.174 34.692 12.354l1.464-1.364C413.005 3.674 400.889-.6 384.972-.6v2Zm34.692 12.354c7.64 8.198 11.54 20.298 11.54 36.47h2c0-16.468-3.972-29.136-12.076-37.834l-1.464 1.364Zm11.54 36.47v101.952h2V50.224h-2Zm0 101.952c0 16.172-3.9 28.272-11.54 36.47l1.464 1.364c8.104-8.698 12.076-21.366 12.076-37.834h-2Zm-11.54 36.47c-7.621 8.18-19.121 12.354-34.692 12.354v2c15.917 0 28.033-4.274 36.156-12.99l-1.464-1.364ZM384.972 201h-48.384v2h48.384v-2Zm-47.384 1V.4h-2V202h2Zm46.808-27.8c5.389 0 9.634-1.605 12.561-4.949l-1.506-1.318c-2.449 2.8-6.076 4.267-11.055 4.267v2Zm12.538-4.924c3.136-3.345 4.59-8.648 4.59-15.66h-2c0 6.812-1.426 11.493-4.05 14.292l1.46 1.368Zm4.59-15.66V48.784h-2v104.832h2Zm0-104.832c0-7.012-1.454-12.315-4.59-15.66l-1.46 1.368c2.624 2.799 4.05 7.48 4.05 14.292h2Zm-4.567-15.634c-2.927-3.345-7.172-4.95-12.561-4.95v2c4.979 0 8.606 1.467 11.055 4.267l1.506-1.317Zm-12.561-4.95h-16.128v2h16.128v-2Zm-17.128 1v144h2v-144h-2Zm1 145h16.128v-2h-16.128v2Zm153.985-58.024h1v-.161l-.05-.153-.95.314ZM483.949.4v-1h-1.384L483 .714l.949-.314Zm33.697 0 .959-.28-.21-.72h-.749v1Zm21.599 74.016-.959.28.21.72h.749v-1Zm.576 0v1h.75l.21-.72-.96-.28ZM561.422.4v-1h-.75l-.21.72.96.28Zm30.815 0 .95.314.435-1.314h-1.385v1Zm-38.304 115.776-.949-.314-.051.153v.161h1Zm0 85.824v1h1v-1h-1Zm-31.68 0h-1v1h1v-1Zm.95-86.138L484.899.086 483 .714l38.304 115.776 1.899-.628ZM483.949 1.4h33.697v-2h-33.697v2Zm32.737-.72 21.6 74.016 1.919-.56L518.605.12l-1.919.56Zm22.559 74.736h.576v-2h-.576v2Zm1.536-.72L562.381.68l-1.919-.56-21.6 74.016 1.919.56ZM561.422 1.4h30.815v-2h-30.815v2ZM591.288.086l-38.304 115.776 1.899.628L593.187.714l-1.899-.628Zm-38.355 116.09V202h2v-85.824h-2Zm1 84.824h-31.68v2h31.68v-2Zm-30.68 1v-85.824h-2V202h2Z" fill="#03839E" mask="url('#path-1-outside-1_1760_393')"/></svg>