<svg width="21" height="20" fill="none" xmlns="http://www.w3.org/2000/svg"><path d="M10.022-.003c-5.514 0-10 4.486-10 10 0 5.513 4.486 10 10 10s10-4.487 10-10c0-5.514-4.486-10-10-10Zm4.461 7.71c.005.1.007.2.007.3 0 3.041-2.315 6.547-6.55 6.547-1.3 0-2.51-.38-3.527-1.033a4.651 4.651 0 0 0 3.407-.953 2.304 2.304 0 0 1-2.15-1.599 2.327 2.327 0 0 0 1.04-.038 2.302 2.302 0 0 1-1.847-2.257v-.03c.31.173.666.277 1.043.288a2.3 2.3 0 0 1-.712-3.073 6.535 6.535 0 0 0 4.743 2.406 2.302 2.302 0 0 1 3.922-2.1 4.595 4.595 0 0 0 1.463-.559 2.312 2.312 0 0 1-1.014 1.274c.466-.056.91-.179 1.322-.362-.307.46-.697.866-1.147 1.19Z" fill="#000"/></svg>