<svg width="870" height="202" fill="none" xmlns="http://www.w3.org/2000/svg"><mask id="path-1-outside-1_1760_389" maskUnits="userSpaceOnUse" x="-1" y="-1" width="872" height="204" fill="#000"><path fill="#fff" d="M-1-1h872v204H-1z"/><path d="M.808.4h45.216l20.16 144.288h.576L86.92.4h45.216V202h-29.952V49.36h-.576L78.568 202H52.072L29.032 49.36h-.576V202H.808V.4Zm224.089 0h42.912L300.641 202h-31.68l-5.76-40.032v.576h-36L221.441 202h-29.376L224.897.4Zm34.56 134.784-14.112-99.648h-.576l-13.824 99.648h28.512ZM360.65.4h46.945c16.32 0 28.224 3.84 35.712 11.52 7.488 7.488 11.232 19.104 11.232 34.848v12.384c0 20.928-6.912 34.176-20.736 39.744v.576c7.68 2.304 13.056 7.008 16.128 14.112 3.264 7.104 4.896 16.608 4.896 28.512v35.424c0 5.76.192 10.464.576 14.112.384 3.456 1.344 6.912 2.88 10.368h-32.256c-1.152-3.264-1.92-6.336-2.304-9.216-.384-2.88-.576-8.064-.576-15.552v-36.864c0-9.216-1.536-15.648-4.608-19.296-2.88-3.648-7.968-5.472-15.264-5.472h-10.944V202H360.65V.4Zm43.201 86.4c6.336 0 11.04-1.632 14.112-4.896 3.263-3.264 4.895-8.736 4.895-16.416V49.936c0-7.296-1.343-12.576-4.031-15.84-2.496-3.264-6.528-4.896-12.096-4.896h-14.4v57.6h11.52Zm141.801-57.6h-33.12V.4h97.92v28.8h-33.12V202h-31.68V29.2ZM670.43.4h31.68V202h-31.68V.4Zm100.047 0h39.744l30.816 120.672h.576V.4h28.224V202h-32.544L799.277 54.832h-.576V202h-28.224V.4Z"/></mask><path d="M.808.4v-1h-1v1h1Zm45.216 0 .99-.138-.12-.862h-.87v1Zm20.16 144.288-.99.138.12.862h.87v-1Zm.576 0v1h.87l.12-.862-.99-.138ZM86.92.4v-1h-.87l-.12.862.99.138Zm45.216 0h1v-1h-1v1Zm0 201.6v1h1v-1h-1Zm-29.952 0h-1v1h1v-1Zm0-152.64h1v-1h-1v1Zm-.576 0v-1h-.86l-.129.85.989.15ZM78.568 202v1h.86l.129-.851-.989-.149Zm-26.496 0-.989.149.129.851h.86v-1ZM29.032 49.36l.989-.15-.129-.85h-.86v1Zm-.576 0v-1h-1v1h1Zm0 152.64v1h1v-1h-1ZM.808 202h-1v1h1v-1Zm0-200.6h45.216v-2H.808v2ZM45.034.538l20.16 144.288 1.98-.276L47.014.262l-1.98.276Zm21.15 145.15h.576v-2h-.576v2Zm1.566-.862L87.91.538 85.93.262 65.77 144.55l1.98.276ZM86.92 1.4h45.216v-2H86.92v2Zm44.216-1V202h2V.4h-2Zm1 200.6h-29.952v2h29.952v-2Zm-28.952 1V49.36h-2V202h2Zm-1-153.64h-.576v2h.576v-2Zm-1.565.85-23.04 152.641 1.978.298 23.04-152.64-1.978-.298ZM78.568 201H52.072v2h26.496v-2Zm-25.507.851L30.02 49.211l-1.978.298 23.04 152.64 1.978-.298ZM29.032 48.36h-.576v2h.576v-2Zm-1.576 1V202h2V49.36h-2Zm1 151.64H.808v2h27.648v-2Zm-26.648 1V.4h-2V202h2ZM224.897.4v-1h-.851l-.136.84.987.16Zm42.912 0 .987-.16-.137-.84h-.85v1ZM300.641 202v1h1.176l-.189-1.161-.987.161Zm-31.68 0-.99.142.123.858h.867v-1Zm-5.76-40.032.99-.142-1.99.142h1Zm0 .576v1h1v-1h-1Zm-36 0v-1h-.865l-.125.856.99.144ZM221.441 202v1h.864l.125-.856-.989-.144Zm-29.376 0-.987-.161-.189 1.161h1.176v-1Zm67.392-66.816v1h1.151l-.161-1.14-.99.14Zm-14.112-99.648.99-.14-.122-.86h-.868v1Zm-.576 0v-1h-.871l-.12.863.991.137Zm-13.824 99.648-.991-.137-.158 1.137h1.149v-1ZM224.897 1.4h42.912v-2h-42.912v2Zm41.925-.84 32.832 201.601 1.974-.322L268.796.239l-1.974.322ZM300.641 201h-31.68v2h31.68v-2Zm-30.69.858-5.76-40.032-1.98.284 5.76 40.032 1.98-.284Zm-7.75-39.89v.576h2v-.576h-2Zm1-.424h-36v2h36v-2Zm-36.99.856-5.76 39.456 1.979.288 5.76-39.456-1.979-.288Zm-4.77 38.6h-29.376v2h29.376v-2Zm-28.389 1.161L225.884.561 223.91.239l-32.832 201.6 1.974.322Zm67.395-67.117-14.112-99.648-1.98.28 14.112 99.648 1.98-.28ZM245.345 34.536h-.576v2h.576v-2Zm-1.567.863-13.824 99.648 1.981.274 13.824-99.648-1.981-.274Zm-12.833 100.785h28.512v-2h-28.512v2ZM360.651.4v-1h-1v1h1Zm82.655 11.52-.716.698.009.01.707-.708Zm-9.504 86.976-.373-.928-.627.253v.675h1Zm0 .576h-1v.744l.713.214.287-.958Zm16.129 14.112-.918.397.004.01.005.01.909-.417Zm5.471 78.048-.994.105.001.005.993-.11ZM458.283 202v1h1.538l-.625-1.406-.913.406Zm-32.257 0-.943.333.236.667h.707v-1Zm-7.487-80.928-.785.62.009.012.011.012.765-.644Zm-26.208-5.472v-1h-1v1h1Zm0 86.4v1h1v-1h-1Zm-31.68 0h-1v1h1v-1Zm57.311-120.096-.707-.707-.01.01-.011.012.728.685Zm.865-47.808-.795.607.011.015.012.014.772-.636ZM392.331 29.2v-1h-1v1h1Zm0 57.6h-1v1h1v-1Zm-31.68-85.4h46.944v-2h-46.944v2Zm46.944 0c16.189 0 27.774 3.812 34.996 11.218l1.431-1.396C436.268 3.268 424.045-.6 407.595-.6v2Zm35.004 11.227c7.226 7.226 10.94 18.534 10.94 34.141h2c0-15.881-3.775-27.805-11.525-35.555l-1.415 1.414Zm10.94 34.141v12.384h2V46.768h-2Zm0 12.384c0 10.364-1.713 18.734-5.071 25.17-3.346 6.413-8.349 10.952-15.039 13.646l.747 1.856c7.134-2.874 12.499-7.743 16.065-14.577 3.554-6.813 5.298-15.53 5.298-26.095h-2Zm-20.737 39.744v.576h2v-.576h-2Zm.713 1.534c7.409 2.223 12.548 6.729 15.498 13.551l1.835-.794c-3.194-7.386-8.807-12.288-16.758-14.673l-.575 1.916Zm15.507 13.571c3.181 6.923 4.805 16.267 4.805 28.095h2c0-11.98-1.641-21.644-4.988-28.93l-1.817.835Zm4.805 28.095v35.424h2v-35.424h-2Zm0 35.424c0 5.778.192 10.52.581 14.217l1.989-.21c-.379-3.599-.57-8.265-.57-14.007h-2Zm.582 14.222c.396 3.567 1.386 7.122 2.96 10.664l1.827-.812c-1.498-3.37-2.428-6.727-2.8-10.072l-1.987.22Zm3.874 9.258h-32.257v2h32.257v-2Zm-31.314.667c-1.133-3.211-1.882-6.215-2.255-9.015l-1.983.264c.395 2.96 1.182 6.1 2.352 9.417l1.886-.666Zm-2.255-9.015c-.374-2.806-.567-7.929-.567-15.42h-2c0 7.484.19 12.73.584 15.684l1.983-.264Zm-.567-15.42v-36.864h-2v36.864h2Zm0-36.864c0-9.262-1.531-16.007-4.844-19.94l-1.529 1.288c2.831 3.363 4.373 9.482 4.373 18.652h2Zm-4.824-19.916c-3.156-3.998-8.622-5.852-16.048-5.852v2c7.165 0 11.876 1.794 14.479 5.092l1.569-1.24Zm-16.048-5.852h-10.944v2h10.944v-2Zm-11.944 1V202h2v-86.4h-2Zm1 85.4h-31.68v2h31.68v-2Zm-30.68 1V.4h-2V202h2ZM403.85 87.8c6.496 0 11.513-1.674 14.841-5.21l-1.457-1.371c-2.816 2.991-7.207 4.581-13.384 4.581v2Zm14.82-5.189c3.543-3.543 5.188-9.344 5.188-17.123h-2c0 7.581-1.618 12.724-4.603 15.709l1.415 1.414Zm5.188-17.123V49.936h-2v15.552h2Zm0-15.552c0-7.375-1.35-12.943-4.26-16.476l-1.543 1.272c2.466 2.995 3.803 7.987 3.803 15.204h2Zm-4.237-16.447c-2.747-3.593-7.13-5.289-12.891-5.289v2c5.376 0 9.057 1.568 11.302 4.503l1.589-1.215ZM406.73 28.2h-14.399v2h14.399v-2Zm-15.399 1v57.6h2V29.2h-2Zm1 58.6h11.519v-2h-11.519v2Zm153.321-58.6h1v-1h-1v1Zm-33.12 0h-1v1h1v-1Zm0-28.8v-1h-1v1h1Zm97.92 0h1v-1h-1v1Zm0 28.8v1h1v-1h-1Zm-33.12 0v-1h-1v1h1Zm0 172.8v1h1v-1h-1Zm-31.68 0h-1v1h1v-1Zm0-173.8h-33.12v2h33.12v-2Zm-32.12 1V.4h-2v28.8h2Zm-1-27.8h97.92v-2h-97.92v2Zm96.92-1v28.8h2V.4h-2Zm1 27.8h-33.12v2h33.12v-2Zm-34.12 1V202h2V29.2h-2Zm1 171.8h-31.68v2h31.68v-2Zm-30.68 1V29.2h-2V202h2ZM670.43.4v-1h-1v1h1Zm31.68 0h1v-1h-1v1Zm0 201.6v1h1v-1h-1Zm-31.68 0h-1v1h1v-1Zm0-200.6h31.68v-2h-31.68v2Zm30.68-1V202h2V.4h-2Zm1 200.6h-31.68v2h31.68v-2Zm-30.68 1V.4h-2V202h2ZM770.477.4v-1h-1v1h1Zm39.744 0 .969-.247-.193-.753h-.776v1Zm30.816 120.672-.969.247.192.753h.777v-1Zm.576 0v1h1v-1h-1Zm0-120.672v-1h-1v1h1Zm28.224 0h1v-1h-1v1Zm0 201.6v1h1v-1h-1Zm-32.544 0-.968.25.193.75h.775v-1ZM799.277 54.832l.968-.25-.194-.75h-.774v1Zm-.576 0v-1h-1v1h1Zm0 147.168v1h1v-1h-1Zm-28.224 0h-1v1h1v-1Zm0-200.6h39.744v-2h-39.744v2Zm38.775-.753 30.816 120.672 1.938-.494L811.19.153l-1.938.494Zm31.785 121.425h.576v-2h-.576v2Zm1.576-1V.4h-2v120.672h2Zm-1-119.672h28.224v-2h-28.224v2Zm27.224-1V202h2V.4h-2Zm1 200.6h-32.544v2h32.544v-2Zm-31.576.75L800.245 54.582l-1.936.5 38.016 147.168 1.936-.5ZM799.277 53.832h-.576v2h.576v-2Zm-1.576 1V202h2V54.832h-2Zm1 146.168h-28.224v2h28.224v-2Zm-27.224 1V.4h-2V202h2Z" fill="#03839E" mask="url('#path-1-outside-1_1760_389')"/></svg>