<svg width="132" height="27" fill="none" xmlns="http://www.w3.org/2000/svg"><path d="M.476.8h5.832c1.968 0 3.444.528 4.428 1.584s1.476 2.604 1.476 4.644v2.484c0 2.04-.492 3.588-1.476 4.644s-2.46 1.584-4.428 1.584H4.436V26H.476V.8Zm5.832 11.34c.648 0 1.128-.18 1.44-.54.336-.36.504-.972.504-1.836V6.776c0-.864-.168-1.476-.504-1.836-.312-.36-.792-.54-1.44-.54H4.436v7.74h1.872Zm15.939 14.22c-1.944 0-3.432-.552-4.464-1.656-1.032-1.104-1.548-2.664-1.548-4.68V6.776c0-2.016.516-3.576 1.548-4.68C18.815.992 20.303.44 22.247.44c1.944 0 3.432.552 4.464 1.656 1.032 1.104 1.548 2.664 1.548 4.68v13.248c0 2.016-.516 3.576-1.548 4.68-1.032 1.104-2.52 1.656-4.464 1.656Zm0-3.6c1.368 0 2.052-.828 2.052-2.484V6.524c0-1.656-.684-2.484-2.052-2.484-1.368 0-2.052.828-2.052 2.484v13.752c0 1.656.684 2.484 2.052 2.484ZM36.052 4.4h-4.14V.8h12.24v3.6h-4.14V26h-3.96V4.4ZM48.23.8h5.868c2.04 0 3.528.48 4.464 1.44.936.936 1.404 2.388 1.404 4.356v1.548c0 2.616-.864 4.272-2.592 4.968v.072c.96.288 1.632.876 2.016 1.764.408.888.612 2.076.612 3.564v4.428c0 .72.024 1.308.072 1.764.048.432.168.864.36 1.296h-4.032a5.772 5.772 0 0 1-.288-1.152c-.048-.36-.072-1.008-.072-1.944v-4.608c0-1.152-.192-1.956-.576-2.412-.36-.456-.996-.684-1.908-.684H52.19V26h-3.96V.8Zm5.4 10.8c.792 0 1.38-.204 1.764-.612.408-.408.612-1.092.612-2.052V6.992c0-.912-.168-1.572-.504-1.98-.312-.408-.816-.612-1.512-.612h-1.8v7.2h1.44ZM72.835.8h5.832c1.968 0 3.444.528 4.428 1.584s1.476 2.604 1.476 4.644v2.484c0 2.04-.492 3.588-1.476 4.644s-2.46 1.584-4.428 1.584h-1.872V26h-3.96V.8Zm5.832 11.34c.648 0 1.128-.18 1.44-.54.336-.36.504-.972.504-1.836V6.776c0-.864-.168-1.476-.504-1.836-.312-.36-.792-.54-1.44-.54h-1.872v7.74h1.872Zm15.938 14.22c-1.944 0-3.432-.552-4.464-1.656-1.032-1.104-1.548-2.664-1.548-4.68V6.776c0-2.016.516-3.576 1.548-4.68C91.173.992 92.661.44 94.605.44c1.944 0 3.432.552 4.464 1.656 1.032 1.104 1.548 2.664 1.548 4.68v13.248c0 2.016-.516 3.576-1.548 4.68-1.032 1.104-2.52 1.656-4.464 1.656Zm0-3.6c1.368 0 2.052-.828 2.052-2.484V6.524c0-1.656-.684-2.484-2.052-2.484-1.368 0-2.052.828-2.052 2.484v13.752c0 1.656.684 2.484 2.052 2.484ZM108.411 4.4h-4.14V.8h12.24v3.6h-4.14V26h-3.96V4.4Zm17.325 21.96c-1.92 0-3.372-.54-4.356-1.62-.984-1.104-1.476-2.676-1.476-4.716v-1.44h3.744v1.728c0 1.632.684 2.448 2.052 2.448.672 0 1.176-.192 1.512-.576.36-.408.54-1.056.54-1.944 0-1.056-.24-1.98-.72-2.772-.48-.816-1.368-1.788-2.664-2.916-1.632-1.44-2.772-2.736-3.42-3.888-.648-1.176-.972-2.496-.972-3.96 0-1.992.504-3.528 1.512-4.608C122.496.992 123.96.44 125.88.44c1.896 0 3.324.552 4.284 1.656.984 1.08 1.476 2.64 1.476 4.68V7.82h-3.744V6.524c0-.864-.168-1.488-.504-1.872-.336-.408-.828-.612-1.476-.612-1.32 0-1.98.804-1.98 2.412 0 .912.24 1.764.72 2.556.504.792 1.404 1.752 2.7 2.88 1.656 1.44 2.796 2.748 3.42 3.924.624 1.176.936 2.556.936 4.14 0 2.064-.516 3.648-1.548 4.752-1.008 1.104-2.484 1.656-4.428 1.656Z" fill="#333"/></svg>